<svg height="512" viewBox="0 0 60 60" width="512" xmlns="http://www.w3.org/2000/svg"><g id="014---Feed-Animal" fill="none"><g id="Icons" transform="translate(1 1)"><path id="Shape" d="m57 4h-22c-.695903-.99250621-1.7249795-1.70221417-2.9-2l-5.29-1.3c-.4105369-.08784908-.8322345.09008619-1.0557481.44547286-.2235137.35538668-.2012462.81254526.0557481 1.14452714l2.84 3.71c-.6062173.36017738-1.1064486.87420815-1.45 1.49l-12.2 22.71c-1.08 2-1.83 3.22-2 5.66-.2748013 3.5407134 2.2688852 6.6774875 5.79 7.14 2.842762.3138953 5.5559058-1.2701258 6.68-3.9.1-.1-.19.12 14.19-9.06 1.4279551-1.3907072 2.4983836-3.1061375 3.12-5 7.79 0 12.36 1.36 15.22 9v-29.04c0-.55228475-.4477153-1-1-1z" fill="#a0522d"/><path id="Shape" d="m58 5v29c-.6593615-1.9117436-1.6775827-3.6800544-3-5.21v-23.79c0-.55228475-.4477153-1-1-1h3c.5522847 0 1 .44771525 1 1z" fill="#783e22"/><path id="Shape" d="m30.57 50.22-10.57 6.25c-.6050158.3577678-1.297208.5411987-2 .53h-13.27c.17-.29-.73-.64-.73-1v-10c2.19 0 3.84-.22 5.49 1 .9034137.664081 1.9988714 1.0151893 3.12 1h3.39c1.1045695 0 2 .8954305 2 2s-.8954305 2-2 2c1.93 0-.29.61 13.27-4.48.6204753-.2120237 1.3074722-.0214118 1.73.48.2804719.3367646.3948259.7817104.3114859 1.211977-.0833399.4302666-.3555571.800336-.7414859 1.008023z" fill="#ffe0b2"/><path id="Shape" d="m5 46c0 10.67.11 10.34-.27 11-.35689901.6181681-1.01620161.9992679-1.73 1h-1c-1.1045695 0-2-.8954305-2-2v-10c.0029536-.9095785.61929853-1.702609 1.5-1.93.49314702-.1025504.99944567-.1261776 1.5-.07 1.1045695 0 2 .8954305 2 2z" fill="#6a1b9a"/><path id="Shape" d="m3 46c0 10.67.11 10.34-.27 11-.2692078.461948-.71217205.7968722-1.23.93-.88070147-.227391-1.4970464-1.0204215-1.5-1.93v-10c.0029536-.9095785.61929853-1.702609 1.5-1.93.88070147.227391 1.4970464 1.0204215 1.5 1.93z" fill="#9d27b0"/><path id="Shape" d="m25.48 39.05c-1.1086085 2.6534131-3.8311619 4.2608998-6.69 3.95-3.160856-.3848881-5.5962424-2.9716974-5.79-6.15-.23-2.85 1-4.92 2-6.65 4.35909 1.7380146 8.036559 4.8435108 10.48 8.85z" fill="#ffe0b2"/></g><g id="Layer_2" fill="#000" transform="translate(0 -1)"><path id="Shape" d="m58 5h-21.51c-.820274-.95167388-1.9127538-1.62880194-3.13-1.94l-8.12-2.06c-.4069897-.08315468-.8230073.09395845-1.045161.44496137-.2221538.35100293-.2041778.8027955.045161 1.13503863l3.87 5-14 25.94-.12.26c-2.91 6.66 1.01 12.22 6.51 12.22 2.8725632.0002775 5.4901001-1.6488096 6.73-4.24 14.6-9.32 14-8.9 14.06-9 1.5236182-1.2324088 2.6476485-2.8888745 3.23-4.76 7 0 11 1.44 13.54 8.32.1640612.4528977.627686.7244736 1.1029613.6460777.4752752-.0783959.8271206-.4844823.8370387-.9660777v-29c0-1.1045695-.8954305-2-2-2zm0 26.75c-3.24-4.9-7.86-5.65-13.06-5.72.2915138-2.8151713-.6235381-5.6220289-2.5182269-7.7244854-1.8946889-2.1024566-4.5915495-3.3035863-7.4217731-3.3055146-.5522847 0-1 .4477153-1 1s.4477153 1 1 1c3.3812759-.0008756 6.397974 2.1241626 7.5356466 5.3082996 1.1376727 3.184137.1506158 6.7396924-2.4656466 8.8817004-15.42 9.85-14.16 9-14.35 9.23l-.17.25c-1.0328307 2.3938226-3.6044196 3.7336192-6.1580896 3.208362-2.5536701-.5252573-4.3877109-2.7712356-4.3919104-5.378362-.0282794-1.405762.2803171-2.797875.9-4.06l13.53-25.12 1.78 2.29c.2087685.3078935.57119.4744549.9408003.4323723.3696102-.0420825.6853128-.2858528.8195237-.6327968.134211-.3469439.0647453-.7397118-.180324-1.0195755l-5.22-6.72 5.31 1.33c1.5252879.40627271 2.6880404 1.64266624 3 3.19.0678804.35726561.3212035.65117886.6645448.77102547.3433413.1198466.7245392.04741901 1.0000001-.19000001.2754608-.23741902.4033356-.60375986.3354551-.96102546-.0520479-.27533554-.1256067-.54616569-.22-.81h2.34c1.6568542 0 3 1.34314575 3 3 0 .5522847.4477153 1 1 1s1-.4477153 1-1c.0058742-1.08279614-.3456229-2.13728761-1-3h1c1.6568542 0 3 1.34314575 3 3 0 .5522847.4477153 1 1 1s1-.4477153 1-1c.0058742-1.08279614-.3456229-2.13728761-1-3h1c1.6568542 0 3 1.34314575 3 3 0 .5522847.4477153 1 1 1s1-.4477153 1-1c.0058742-1.08279614-.3456229-2.13728761-1-3h4z"/><path id="Shape" d="m3 61c1.16 0 2.21.12 3.21-1h12.79c.8653394.0020154 1.7151968-.2294498 2.46-.67 11.75-6.94 10.54-6.25 10.62-6.25.5960462-.3457518 1.0197555-.9256432 1.1680275-1.5985702.1482721-.672927.0075127-1.3771928-.3880275-1.9414298-.6472127-.9518337-1.8466513-1.359806-2.94-1l-9.92 3.79c.0942073-.8510881-.1797631-1.7018712-.7529049-2.3380586-.5731419-.6361874-1.3908247-.9971394-2.2470951-.9919414h-3.39c-.9044866.0030584-1.7866906-.2805072-2.52-.81-1.0801754-.778091-2.37876629-1.1946201-3.71-1.19h-.56c-.4227483-1.1957287-1.55174508-1.9964356-2.82-2h-1c-1.65685425 0-3 1.3431458-3 3v10c0 1.6568542 1.34314575 3 3 3zm6.91-11.2c1.0726782.7865421 2.3698743 1.2072544 3.7 1.2h3.39c.5522847 0 1 .4477153 1 1s-.4477153 1-1 1c-4.69 0-5.47-.24-7.53 1.06-.30367575.1893508-.48326629.5263272-.47112159.8839935.01214469.3576663.21417955.6816844.53.85.31582044.1683155.69744579.1553573 1.00112159-.0339935 1.53-1 1.63-.76 7.44-.76.8 0 0 .21 12.6-4.53.61-.18 1 .57.49.89l-10.62 6.25c-.435501.2587727-.9334319.393629-1.44.39l-12 .0000714v-9.0000821l.38.0000107c.90586637-.002004 1.7899677.2775537 2.53.8zm-7.91-1.8c0-.5522847.44771525-1 1-1h1c.55228475 0 1 .4477153 1 1v10c0 .5522847-.44771525 1-1 1h-1c-.55228475 0-1-.4477153-1-1z"/></g></g></svg>